<svg width="100" height="100" viewBox="0 0 100 100" fill="none" xmlns="http://www.w3.org/2000/svg">
<g clip-path="url(#clip0_518_2)">
<rect width="100" height="100" fill="#0F1627"/>
<path d="M81.5 80.4492C73.1745 80.4492 65.8971 76.1367 59.668 67.5117C59.1888 66.8529 58.5599 65.9544 57.7812 64.8164C57.0625 63.6784 55.7148 61.6719 53.7383 58.7969C52.7799 57.4193 51.9115 56.2812 51.1328 55.3828C50.4141 54.4245 49.5456 53.7057 48.5273 53.2266C47.569 52.7474 46.2513 52.5078 44.5742 52.5078C43.9154 52.5078 43.3763 52.5977 42.957 52.7773C42.5977 52.957 42.418 53.3763 42.418 54.0352V67.2422C42.418 71.1953 42.6576 73.8008 43.1367 75.0586C43.3763 75.5378 43.9453 75.987 44.8438 76.4062C45.8021 76.8255 46.8203 77.1549 47.8984 77.3945C48.9766 77.5742 49.7552 77.6641 50.2344 77.6641C50.474 77.6641 50.5938 78.0833 50.5938 78.9219C50.5938 79.3411 50.5339 79.7904 50.4141 80.2695C47.4193 80.1497 44.9336 80.0299 42.957 79.9102C41.0404 79.7904 39.6328 79.7604 38.7344 79.8203L27.7734 80.2695C27.5938 80.0898 27.5039 79.5508 27.5039 78.6523C27.5039 77.8737 27.5938 77.4844 27.7734 77.4844C28.3724 77.4844 29.0911 77.3945 29.9297 77.2148C30.8281 77.0352 31.6667 76.8255 32.4453 76.5859C33.2839 76.2865 33.793 75.957 33.9727 75.5977C34.3919 74.9388 34.6016 72.1237 34.6016 67.1523V33.1914C34.6016 31.4544 34.5417 29.9271 34.4219 28.6094C34.362 27.2917 34.2122 26.2435 33.9727 25.4648C33.8529 25.1055 33.3737 24.776 32.5352 24.4766C31.7565 24.1771 30.888 23.9375 29.9297 23.7578C29.0312 23.5781 28.3125 23.4883 27.7734 23.4883C27.5339 23.4883 27.4141 23.1289 27.4141 22.4102C27.4141 21.6315 27.5339 21.1224 27.7734 20.8828L38.5547 21.0625C40.2917 21.1224 42.418 21.0924 44.9336 20.9727C47.4492 20.793 49.5456 20.7031 51.2227 20.7031C54.457 20.7031 57.5417 21.332 60.4766 22.5898C63.4714 23.8477 65.8971 25.7044 67.7539 28.1602C69.6706 30.6159 70.6289 33.6107 70.6289 37.1445C70.6289 39.6602 69.6706 42.2956 67.7539 45.0508C65.8971 47.806 63.3516 49.9323 60.1172 51.4297C59.5182 51.6693 59.3385 51.9688 59.5781 52.3281C62.513 58.5573 65.957 63.8281 69.9102 68.1406C75.6602 74.4297 80.332 77.5742 83.9258 77.5742C84.1055 77.9336 84.1953 78.3529 84.1953 78.832C84.1953 79.3711 84.1055 79.8203 83.9258 80.1797C83.3268 80.3594 82.5182 80.4492 81.5 80.4492ZM50.2344 48.6445H52.4805C53.918 48.6445 55.3854 48.1654 56.8828 47.207C58.4401 46.2487 59.7279 44.901 60.7461 43.1641C61.8242 41.4271 62.3633 39.4206 62.3633 37.1445C62.3633 28.819 58.1706 24.6562 49.7852 24.6562C47.0299 24.6562 44.9336 24.8659 43.4961 25.2852C42.957 25.4049 42.6276 26.3932 42.5078 28.25C42.4479 30.0469 42.418 32.3529 42.418 35.168V46.0391C42.418 47.776 45.0234 48.6445 50.2344 48.6445Z" fill="#C0AA6D"/>
</g>
<defs>
<clipPath id="clip0_518_2">
<rect width="100" height="100" fill="white"/>
</clipPath>
</defs>
</svg>
