<svg width="151" height="44" viewBox="0 0 151 44" fill="none" xmlns="http://www.w3.org/2000/svg">
<g clip-path="url(#clip0_1498_43)">
<path d="M10.5943 43.7729C8.5283 42.7066 7.23585 40.5741 7.23585 38.2434V33.4877C7.23585 33.4877 7.23585 33.4216 7.23585 33.3839V26.2125C7.23585 26.2125 7.23585 26.137 7.23585 26.1087V17.8617H22.9717C28.5283 17.8617 32.8113 14.0873 32.9717 9.01073C32.9717 9.01073 32.9717 8.97299 32.9717 8.95412C32.9717 8.94468 32.9717 8.92581 32.9717 8.91637C32.8302 3.83038 28.5377 0.0371094 22.9717 0.0371094H0.5C2.54717 1.01845 3.85849 3.09437 3.85849 5.36844L3.89623 38.2245C3.89623 40.5647 2.58491 42.7066 0.509434 43.7729H0.5H10.5943ZM19.7925 17.4371H7.23585V0.471165H19.7925C27.8679 0.650448 29.3868 5.43449 29.4906 8.95412C29.3868 12.4737 27.8679 17.2578 19.7925 17.4371Z" fill="#000000"/>
<path d="M31.6691 28.2315H44.3578V5.15108L31.6691 28.2315ZM44.3578 33.1288V28.7882H31.3673L27.3578 36.0634C25.971 38.5828 26.3861 41.7155 28.3861 43.782H20.9805L21.2918 43.4612C23.3107 41.3664 25.0465 39.0074 26.4427 36.4502L42.0276 7.96301C43.405 5.43416 42.9899 2.10326 40.9899 0.0273438H47.839V36.3087L44.3484 33.1288H44.3578Z" fill="#000000"/>
<path d="M128.669 0.0754879C124.159 0.0754879 119.923 1.46258 116.395 3.85932C116.537 3.98199 116.659 4.11409 116.782 4.25563C119.716 2.22689 122.433 1.57581 125.886 1.57581C137.706 1.57581 148.216 13.5878 148.216 25.9678C148.216 34.866 140.339 41.9052 131.263 41.9052C126.065 41.9052 121.122 39.584 117.216 35.9322C112.074 31.1293 107.32 25.3167 107.291 18.2869V11.0024C107.282 2.5949 102.546 0 97.2064 0C97.0083 0 95.4989 0 95.3008 0V0.434055C95.5178 0.434055 97.4046 0.434055 97.6215 0.434055C101.81 0.434055 106.763 2.82136 106.763 10.9741V22.0236C106.763 34.3376 116.65 43.9811 128.593 43.9811C140.537 43.9811 150.489 34.3376 150.489 22.0236C150.489 9.70963 140.612 0.0754879 128.669 0.0754879Z" fill="#000000"/>
<path d="M88.7634 18.3901C84.754 16.5123 77.8012 12.2473 77.8012 7.1141C77.8012 3.16986 81.7445 0.471165 86.5087 0.471165H95.4804V0.0371094H86.3861C81.254 0.0371094 76.8672 3.23591 76.8672 8.5578C76.8672 16.635 84.0087 21.2115 88.5181 23.4667C93.5936 26.0332 100.98 30.1096 100.98 35.4315C100.98 40.2533 96.2162 43.4521 90.6502 43.4521C89.7351 43.4521 80.3578 43.4709 80.3578 43.4709V43.8956H90.6502C97.1596 43.8956 102.112 39.8192 102.112 33.6858C102.112 25.1651 96.537 22.0324 88.7729 18.3995" fill="#000000"/>
<path d="M65.9353 18.3898C61.9259 16.512 54.973 12.2469 54.973 7.11377C54.973 3.16953 58.9164 0.470835 63.6806 0.470835H76.8692V0.0273438H63.5579C58.4259 0.0273438 54.0391 3.22614 54.0391 8.54804C54.0391 16.6252 61.1806 21.2017 65.69 23.4569C70.7655 26.0235 78.1523 30.0998 78.1523 35.4217C78.1523 40.2435 73.3881 43.4423 67.8221 43.4423C66.9259 43.4423 58.4825 43.4423 58.4825 43.4423V43.8858H67.8221C74.3315 43.8858 79.2843 39.8095 79.2843 33.6761C79.2843 25.1554 73.7089 22.0226 65.9447 18.3898" fill="#000000"/>
</g>
<defs>
<clipPath id="clip0_1498_43">
<rect width="150" height="44" fill="#000000" transform="translate(0.5)"/>
</clipPath>
</defs>
</svg>
